<?xml version="1.0" encoding="UTF-8"?>
<svg id="Layer_1" data-name="Layer 1" xmlns="http://www.w3.org/2000/svg" viewBox="0 0 1080 720">
  <defs>
    <style>
      .cls-1 {
        fill: none;
      }

      .cls-1, .cls-2, .cls-3 {
        stroke-width: 0px;
      }

      .cls-2 {
        fill: #000;
      }

      .cls-3 {
        fill: #231f20;
      }
    </style>
  </defs>
  <g>
    <path class="cls-1" d="M255.33,372.81c-1.13,2.81-2.18,5.58-3.16,8.27-.85,2.34-1.67,4.67-2.44,6.99-9.37,27.97-13.39,54.96-11.97,80.33,1.54,27.49,9.44,52.41,23.49,74.05,20.94,32.26,54.09,54.83,96.19,66.23.14.03.28.07.43.11,20.36,5.46,42.8,8.32,66.97,8.4,75.15.23,157.74-26.35,232.49-74.86,7.69-4.98,15.37-10.27,22.84-15.71.3-.21.59-.42.89-.64,8.79-6.41,17.48-13.21,25.85-20.22h.01c.33-.27.65-.54.97-.81,8.61-7.22,16.97-14.75,24.86-22.39.26-.24.51-.49.76-.73,3.96-3.83,7.88-7.77,11.65-11.71.24-.25.47-.49.71-.74,6.06-6.32,11.93-12.85,17.47-19.4.21-.24.41-.47.61-.71l.13-.16.69-.81c3.62-4.3,7.17-8.71,10.54-13.09.2-.25.4-.51.59-.76,7.32-9.5,14.19-19.31,20.42-29.14.02-.03.03-.05.05-.08,2.48-3.9,4.88-7.86,7.14-11.76.01,0,.01-.02.02-.03,1.57-2.69,3.17-5.53,4.75-8.43,2.38-4.36,4.61-8.67,6.64-12.81.01-.02.02-.05.04-.07,1.89-3.87,3.72-7.78,5.43-11.65,30.06-68.03,29.48-131.9-1.64-179.85-10.22-15.74-23.34-29.18-39-40.13-9.08-6.36-19.02-11.88-29.73-16.53-27.06-11.76-59.07-17.95-94.86-18.08h-1.05c-66.19,0-139.81,21.35-207.29,60.11l-.06.03c-2,1.14-3.98,2.31-5.97,3.47-1.26.75-2.53,1.5-3.79,2.27-4.82,2.91-9.63,5.93-14.32,8.97-13.87,9-27.41,18.73-40.23,28.93-.8.64-1.61,1.28-2.41,1.93-3.34,2.68-6.65,5.42-9.88,8.18l-.57.48-.03.02c-.82.7-1.64,1.4-2.45,2.1-5.84,5.04-11.58,10.23-17.13,15.51-.2.19-.41.39-.61.58-.04.04-.08.07-.11.11-.05.04-.09.09-.14.13-.39.37-.78.75-1.17,1.12-.11.11-.22.21-.33.32l-.38.36c-4.06,3.92-8.07,7.93-11.94,11.95l-.69.71c-1.07,1.12-2.14,2.25-3.19,3.38-4.03,4.28-7.96,8.63-11.77,13.02l-.02.02s-.05.05-.07.08c-7.08,8.17-13.78,16.52-20.05,24.99,0,0,0,.01-.01.02-.56.76-1.13,1.53-1.68,2.29-.05.07-.11.15-.16.23-.17.23-.33.45-.49.68-1.32,1.82-2.62,3.65-3.9,5.47l-.48.69c-3.52,5.05-6.9,10.17-10.07,15.24-.87,1.39-1.73,2.78-2.57,4.16-2.01,3.29-3.92,6.55-5.72,9.73-.86,1.52-1.72,3.05-2.56,4.59-2.25,4.11-4.41,8.27-6.46,12.43"/>
    <path class="cls-3" d="M827.12,175.21c-10.22-15.75-23.13-29.32-38.4-40.56-10.1-7.44-21.23-13.86-33.3-19.21-28.59-12.68-62.43-19.39-100.24-19.52h-1.09c-76.78,0-160.9,27.16-236.88,76.47-12.9,8.38-25.51,17.35-37.46,26.69-.29.23-.58.45-.87.68-3.34,2.62-6.67,5.3-9.94,7.99l-2.18,1.82c-.28.23-.56.47-.84.7-11.03,9.25-21.64,18.96-31.54,28.86l-2.96,2.96h.03c-3.12,3.18-6.22,6.43-9.25,9.7l-.39.42c-.81.88-1.62,1.76-2.43,2.65-.03.03-.05.06-.08.09-.22.24-.43.48-.65.72-.03.03-.06.07-.09.1-.67.75-1.35,1.49-2.01,2.24-7.34,8.21-14.31,16.62-20.84,25.12-2.02,2.63-4,5.28-5.93,7.93l-.34.46c-3.63,5-7.12,10.03-10.37,14.96-.17.26-.34.52-.51.78-2.76,4.2-5.41,8.42-7.9,12.55-.16.26-.32.52-.46.78-1.34,2.23-2.51,4.24-3.58,6.11l-.23.41.57,5.81c.12,1.15-.62,2.18-1.69,2.49h-.01c-.07.06-.14.12-.22.17-.4.29-.86.51-1.36.63-.07,0-.14.03-.21.04-.09.02-.19.03-.29.04l-1.96.19-.02.04c-2.15,4.03-4.24,8.16-6.24,12.31v-.19l-1.33,2.92c.44-.25.94-.41,1.48-.46l6.34-.63,3.09-.3c.3-.03.59-.02.87.02,2.05-4.16,4.21-8.32,6.46-12.43.84-1.54,1.7-3.07,2.56-4.59,1.8-3.18,3.71-6.44,5.72-9.73.84-1.38,1.7-2.77,2.57-4.16,3.17-5.07,6.55-10.19,10.07-15.24l.48-.69c1.28-1.82,2.58-3.65,3.9-5.47.16-.23.32-.45.49-.68.05-.08.11-.16.16-.23.55-.76,1.12-1.53,1.68-2.29.01-.01.01-.02.01-.02,6.27-8.47,12.97-16.82,20.05-24.99.02-.03.05-.05.07-.08l.02-.02c3.81-4.39,7.74-8.74,11.77-13.02,1.05-1.13,2.12-2.26,3.19-3.38l.69-.71c3.87-4.02,7.88-8.03,11.94-11.95l.38-.36c.11-.11.22-.21.33-.32.39-.37.78-.75,1.17-1.12.05-.04.09-.09.14-.13.03-.04.07-.07.11-.11.2-.19.41-.39.61-.58,5.55-5.28,11.29-10.47,17.13-15.51.81-.7,1.63-1.4,2.45-2.1l.03-.02.57-.48c3.23-2.76,6.54-5.5,9.88-8.18.8-.65,1.61-1.29,2.41-1.93,12.82-10.2,26.36-19.93,40.23-28.93,4.69-3.04,9.5-6.06,14.32-8.97,1.26-.77,2.53-1.52,3.79-2.27,1.99-1.16,3.97-2.33,5.97-3.47.02-.01.04-.02.06-.03,67.48-38.76,141.1-60.11,207.29-60.11h1.05c35.79.13,67.8,6.32,94.86,18.08,10.71,4.65,20.65,10.17,29.73,16.53,15.66,10.95,28.78,24.39,39,40.13,31.12,47.95,31.7,111.82,1.64,179.85-1.71,3.87-3.54,7.78-5.43,11.65-.02.02-.03.05-.04.07-2.03,4.14-4.26,8.45-6.64,12.81-1.58,2.9-3.18,5.74-4.75,8.43-.01.01-.01.02-.02.03-2.26,3.9-4.66,7.86-7.14,11.76-.02.03-.03.05-.05.08-6.23,9.83-13.1,19.64-20.42,29.14-.19.25-.39.51-.59.76-3.37,4.38-6.92,8.79-10.54,13.09l-.69.81-.13.16c-.2.24-.4.47-.61.71-5.54,6.55-11.41,13.08-17.47,19.4-.24.25-.47.49-.71.74-3.77,3.94-7.69,7.88-11.65,11.71-.25.24-.5.49-.76.73-7.89,7.64-16.25,15.17-24.86,22.39-.32.27-.64.54-.97.81h-.01c-8.37,7.01-17.06,13.81-25.85,20.22-.3.22-.59.43-.89.64-7.47,5.44-15.15,10.73-22.84,15.71-74.75,48.51-157.34,75.09-232.49,74.86-24.17-.08-46.61-2.94-66.97-8.4-.15-.04-.29-.08-.43-.11-42.1-11.4-75.25-33.97-96.19-66.23-14.05-21.64-21.95-46.56-23.49-74.05-1.42-25.37,2.6-52.36,11.97-80.33.77-2.32,1.59-4.65,2.44-6.99.98-2.69,2.03-5.46,3.16-8.27-1.22-.55-2.12-1.72-2.26-3.14l-.04-.4-1.33-13.51-1.4,3.01.13-.12c-.9,2.05-1.77,4.06-2.56,5.97-.12.28-.23.56-.35.84-28.41,68.58-26.52,133.35,5.34,182.45,33.02,50.87,94.08,79.03,171.94,79.29h1.09-.03c76.77.01,160.89-27.15,236.88-76.46,7.5-4.87,14.98-9.99,22.24-15.25.4-.29.8-.57,1.19-.86,5.19-3.78,10.36-7.69,15.42-11.67,1.48-1.17,2.95-2.34,4.41-3.51,9.69-7.79,19.1-15.95,27.99-24.27.82-.76,1.63-1.52,2.44-2.29,3.25-3.08,6.61-6.34,10.01-9.75.81-.83,1.64-1.66,2.46-2.5,5.41-5.52,10.72-11.22,15.82-16.97.82-.93,1.65-1.87,2.46-2.8l.1-.13c3.25-3.73,6.5-7.58,9.64-11.46l.19-.24c.5-.62,1-1.24,1.5-1.87.21-.25.41-.5.61-.75,10.49-13.15,20.06-26.75,28.45-40.43.39-.63.78-1.27,1.16-1.9,2.04-3.36,3.99-6.71,5.82-9.97.34-.6.68-1.22,1.03-1.84,1.16-2.09,2.35-4.28,3.6-6.65.31-.59.63-1.19.94-1.79,1.86-3.55,3.71-7.29,5.53-11.12.28-.59.55-1.16.82-1.73,1.06-2.24,2.02-4.36,2.94-6.45,31.47-71.21,30.62-138.45-2.39-189.33Z"/>
  </g>
  <g>
    <path class="cls-3" d="M812.89,129.69l.04.41-11.17,1.02c-21.46,1.96-37.28,20.96-35.31,42.43l.98,10.76-.41.04-.98-10.76c-1.96-21.47-20.96-37.28-42.43-35.31l-5.79.53-.04-.41,5.79-.53c21.47-1.96,37.28-20.96,35.31-42.43l-.57-6.2.41-.04.57,6.2c1.96,21.47,20.96,37.28,42.43,35.31l11.17-1.02Z"/>
    <path class="cls-3" d="M404.25,564.32l.04.41-11.17,1.02c-21.46,1.96-37.28,20.96-35.31,42.43l.98,10.76-.41.04-.98-10.76c-1.96-21.47-20.96-37.28-42.43-35.31l-5.79.53-.04-.41,5.79-.53c21.47-1.96,37.28-20.96,35.31-42.43l-.57-6.2.41-.04.57,6.2c1.96,21.47,20.96,37.28,42.43,35.31l11.17-1.02Z"/>
  </g>
  <g>
    <path class="cls-1" d="M256.15,264.88c2.11-.21,3.66-2.09,3.45-4.21l-1.41-14.37c-.21-2.12-2.1-3.66-4.22-3.45l-9.42.93c-2.12.2-3.67,2.09-3.46,4.21l1.41,14.36c.21,2.12,2.1,3.67,4.22,3.46l9.43-.93Z"/>
    <path class="cls-1" d="M252.77,230.6c2.12-.21,3.67-2.09,3.46-4.21l-1.42-14.36c-.2-2.12-2.09-3.67-4.21-3.46l-9.43.93c-2.12.21-3.66,2.09-3.45,4.21l1.41,14.37c.21,2.11,2.1,3.66,4.21,3.45l9.43-.93h0Z"/>
    <path class="cls-1" d="M489.3,402.05c-6.04-1.82-11.43-4.59-16.18-8.32s-8.67-8.24-11.75-13.53-4.92-11.08-5.54-17.39c-.62-6.3.08-12.35,2.07-18.14,2-5.78,4.97-10.94,8.91-15.48s8.7-8.28,14.28-11.24c2.88-1.52,5.89-2.74,9.05-3.64l-50.05,4.81-21.59,44.17,4.6,47.12,71.93-7.03h0c-1.94-.32-3.85-.76-5.73-1.33Z"/>
    <path class="cls-1" d="M390.69,323.86l19.87,26.06c2.36-4.7,4.59-9.19,6.77-13.65,2.62-5.35,5.15-10.58,7.61-15.7l-34.25,3.29h0Z"/>
    <path class="cls-1" d="M266.63,332.08c.02.25.02.5,0,.74-.01.1-.02.2-.04.3-.03.16-.06.32-.11.47-.02.08-.05.15-.08.23-.01.03-.02.06-.04.1-.03.09-.07.17-.12.26-.08.17-.19.34-.3.5-.03.05-.07.1-.11.15-.08.1-.16.19-.24.28-.1.1-.21.2-.32.3h-.01c-.13.04-.26.07-.4.08l-3.28.32-.36.67-.52.05-6.95.69c-2.12.21-4.01-1.34-4.22-3.46l-1.41-14.36c-.21-2.12,1.34-4.01,3.46-4.21l9.42-.93c2.12-.21,4.01,1.34,4.22,3.45l.89,9.04.52,5.33Z"/>
    <path class="cls-1" d="M259.68,300.79c2.12-.21,3.67-2.1,3.46-4.21l-1.42-14.37c-.21-2.12-2.09-3.66-4.21-3.46l-9.43.93c-2.12.21-3.66,2.1-3.45,4.22l1.41,14.36c.21,2.12,2.09,3.67,4.21,3.46l9.43-.93Z"/>
    <path class="cls-1" d="M533.23,381.51c3.21-3.69,5.61-7.86,7.22-12.52,1.6-4.66,2.15-9.53,1.66-14.61-.49-5-1.98-9.63-4.45-13.89-2.47-4.26-5.64-7.89-9.5-10.89-3.87-3-8.24-5.25-13.13-6.75-4.88-1.51-9.97-2-15.28-1.48s-10.19,1.99-14.65,4.4c-4.46,2.42-8.3,5.47-11.51,9.16-3.21,3.69-5.62,7.87-7.22,12.53s-2.16,9.49-1.67,14.48c.5,5.08,1.98,9.75,4.45,14.01,2.48,4.26,5.65,7.89,9.51,10.89,3.87,3,8.22,5.25,13.07,6.76,4.84,1.51,9.91,2,15.22,1.48,5.31-.52,10.21-1.98,14.71-4.4s8.35-5.48,11.57-9.17h0Z"/>
    <path class="cls-1" d="M252.95,352.04c.21-.18.43-.35.68-.48l-1.12,2.47-.81,1.73-.04-.45c0-.15-.02-.29-.02-.44.01-1.12.51-2.14,1.31-2.83Z"/>
    <path class="cls-1" d="M265.41,350.19c1.75.21,3.17,1.61,3.34,3.43l1.42,14.37c.21,2.12-1.34,4-3.46,4.21l-9.43.93c-.69.07-1.36-.05-1.95-.32"/>
    <path class="cls-1" d="M258.63,386.87c-2.11.21-3.66,2.09-3.45,4.21l1.41,14.37c.21,2.11,2.1,3.66,4.22,3.45l9.42-.93c2.12-.2,3.67-2.09,3.46-4.21l-1.41-14.36c-.21-2.12-2.1-3.67-4.22-3.46l-9.43.93h0Z"/>
    <path class="cls-1" d="M462.7,226.07c-1.85-3.48-3.71-6.97-5.56-10.46s-3.75-7.06-5.67-10.71c-1.93-3.66-3.97-7.53-6.12-11.63l-13.39,47.07,36.51-3.56c-1.99-3.65-3.91-7.22-5.77-10.71h0Z"/>
    <path class="cls-1" d="M582.6,382.3c-2-3.18-3.22-6.89-3.62-11.03l-6.34-64.89-63.74,6.12c3.24.28,6.41.89,9.51,1.81,6.07,1.81,11.48,4.56,16.23,8.25s8.64,8.18,11.68,13.48c3.04,5.29,4.87,11.09,5.49,17.4.61,6.3-.06,12.34-2.02,18.13-1.96,5.78-4.91,10.96-8.84,15.53-3.94,4.58-8.72,8.35-14.33,11.3-1.73.92-3.52,1.72-5.35,2.42l75.34-7.36c-2.32-.86-4.49-1.94-6.45-3.28-3.04-2.07-5.58-4.72-7.56-7.88h0Z"/>
    <path class="cls-1" d="M701.81,352.61l-2-2.5-1.02-10.45,1.99-.19c2.59-.25,4.77-.51,6.47-.78,1.46-.23,3.07-.7,4.79-1.38,1.25-.51,2.37-1.3,3.39-2.41,1.05-1.14,1.95-2.5,2.66-4.04.72-1.58,1.25-3.36,1.55-5.27.32-1.95.39-3.94.19-5.93-.37-3.77-1.42-6.88-3.1-9.23-1.68-2.36-3.85-4.11-6.45-5.22-1.52-.62-3.26-1.01-5.15-1.17-2-.16-4.11-.14-6.26.08l-21.02,2.06,7.68,78.6,39.04-3.81c-3.93-4.87-7.86-9.74-11.77-14.63-3.65-4.54-7.31-9.12-10.98-13.72h0Z"/>
    <path class="cls-1" d="M633.38,300.54l6.33,64.8c.41,4.11,0,7.96-1.22,11.45-1.21,3.46-3.05,6.54-5.47,9.17-1.58,1.7-3.43,3.19-5.49,4.48l44.48-4.35-8.64-88.43-30,2.88h0Z"/>
    <path class="cls-1" d="M620.17,301.81l-34.32,3.3,6.32,64.65c.2,2.02.81,3.83,1.85,5.51,1.06,1.71,2.44,3.16,4.1,4.3,1.71,1.19,3.71,2.09,5.96,2.68,2.24.59,4.68.76,7.27.5,2.53-.25,4.81-.84,6.78-1.77,1.96-.92,3.62-2.11,4.93-3.53,1.31-1.4,2.26-3.05,2.85-4.91.6-1.9.79-3.97.58-6.14l-6.31-64.59h-.01Z"/>
    <path class="cls-2" d="M446.76,166.03l-1.13-2.14-1.39.14-5.19.51-.85,3-1.2,4.23-37.17,131.28,15.05-1.47c2.14-7.9,4.36-15.86,6.66-23.88,2.3-8.03,4.53-15.93,6.68-23.71l46.72-4.57,23.17,44.03,15.23-1.49-66.58-125.93ZM431.96,240.34l13.39-47.07c2.15,4.1,4.19,7.97,6.12,11.63,1.92,3.65,3.82,7.22,5.67,10.71,1.85,3.49,3.71,6.98,5.56,10.46,1.86,3.49,3.78,7.06,5.77,10.71l-36.51,3.56Z"/>
    <path class="cls-2" d="M526.26,213.23c6.72,5.69,16.03,9.23,27.94,10.63l-.02-.17c12.6,1.45,22.33,4.14,29.17,8.07,6.85,3.93,10.59,9.18,11.24,15.76.35,3.57-.2,6.89-1.65,9.94s-3.63,5.74-6.55,8.06c-2.92,2.33-6.43,4.24-10.53,5.75-4.11,1.51-8.64,2.5-13.6,2.99-4.73.46-9.13.36-13.21-.29-4.09-.65-7.63-1.49-10.65-2.54-3.01-1.04-5.41-2.09-7.2-3.14-1.79-1.04-2.88-1.72-3.26-2.04l-8.36,10.95c.38.31,1.65,1.15,3.82,2.51,2.17,1.36,5.1,2.71,8.78,4.04,3.68,1.32,8.04,2.41,13.07,3.26,5.04.85,10.61.97,16.72.38,6.58-.65,12.79-2.01,18.64-4.1,5.85-2.08,10.94-4.88,15.26-8.39,4.31-3.5,7.63-7.64,9.96-12.41s3.2-10.21,2.6-16.33c-.98-10.03-5.53-17.91-13.66-23.64-8.14-5.73-19.15-9.43-33.06-11.1-4.47-.49-8.64-1.16-12.51-2.01-3.87-.84-7.24-2-10.12-3.46-2.88-1.47-5.22-3.39-7.03-5.78-1.8-2.38-2.87-5.31-3.21-8.77s.04-6.7,1.15-9.72c1.1-3.02,2.87-5.72,5.32-8.12,2.44-2.39,5.51-4.38,9.2-5.96,3.69-1.59,7.95-2.61,12.8-3.09,4.38-.43,8.63-.17,12.74.77s8.77,2.55,14.01,4.83l7.51-10.69c-5.21-3.33-11.23-5.63-18.05-6.88-6.82-1.26-13-1.62-18.54-1.08-5.77.57-11.22,1.97-16.35,4.22-5.14,2.25-9.55,5.13-13.22,8.63-3.68,3.5-6.48,7.59-8.41,12.26-1.93,4.68-2.63,9.72-2.1,15.15.84,8.65,4.63,15.82,11.36,21.51h0Z"/>
    <polygon class="cls-2" points="644.84 279.12 638.72 216.48 707.59 209.75 713.71 272.39 727.55 271.04 714.52 137.63 700.67 138.98 706.3 196.6 637.43 203.33 631.81 145.71 617.96 147.06 630.99 280.47 644.84 279.12"/>
    <polygon class="cls-2" points="303.16 434.42 303.16 434.42 302.98 434.44 303.16 434.42"/>
    <path class="cls-2" d="M493.81,423.71l-35.62,114.65-57.13-105.59-12.99,1.27,12.71,130.02,13.49-1.32-9.16-93.76,48.79,89.89,12.47-1.22c4.91-16.02,9.93-32.23,15.09-48.63,5.15-16.39,10.28-32.72,15.38-49l9.16,93.76,13.49-1.32-12.7-130.01-12.98,1.26h0Z"/>
    <polygon class="cls-2" points="551.78 538.26 546.19 481.02 605.74 475.2 604.66 464.17 545.11 469.99 541.23 430.25 600.94 424.41 599.86 413.38 540.15 419.21 540.15 419.16 527.16 420.42 527.17 420.48 527.16 420.48 527.33 422.28 539.36 550.49 539.7 550.46 539.7 550.49 615.45 543.09 614.38 532.14 551.78 538.26"/>
    <polygon class="cls-2" points="846.71 520.5 845.64 509.55 783.17 515.65 777.58 458.41 837 452.61 835.92 441.58 776.5 447.38 776.25 444.78 775.26 434.69 772.62 407.62 795.81 405.36 804.59 404.5 832.33 401.79 831.25 390.76 811.54 392.68 803 393.52 771.54 396.59 771.54 396.57 758.55 397.83 758.55 397.86 758.63 398.74 763.32 448.67 763.22 448.68 763.3 449.52 764.24 459.18 764.29 459.71 764.35 459.7 770.75 527.9 770.95 527.88 770.95 527.9 846.71 520.5"/>
    <path class="cls-2" d="M745.12,469.74l-6.83-69.91-12.98,1.27-35.62,114.65-57.13-105.59-12.98,1.27,12.7,130.02,13.49-1.32-9.16-93.76,43.5,80.14,3.37,6.21,1.92,3.54,12.48-1.22c1.77-5.8,3.56-11.62,5.37-17.46,1.24-4.04,2.5-8.1,3.77-12.16,1.96-6.31,3.94-12.65,5.94-19.01,5.15-16.39,10.28-32.73,15.39-49l4.37,44.82.87,8.87,3.91,40.07,13.5-1.32-4.98-50.96-.9-9.15Z"/>
    <path class="cls-2" d="M271.87,337.76l-.58-5.97-1.09-11.2-.07-.7-13.7-140.41-4.77.46,1.07,10.95c.21,2.12-1.34,4-3.45,4.21l-9.43.93c-2.12.21-4.01-1.34-4.22-3.46l-1.08-10.96-4.92.48,17.8,182.41.09.96,1.41,14.43.8,8.18,4.98,51.03,5.15-.5-1.23-12.42c-.21-2.12,1.34-4.01,3.46-4.22l9.43-.93c2.11-.21,4,1.34,4.21,3.46l1.22,12.44,4.55-.44-9.63-98.73ZM268.75,353.62l1.42,14.37c.21,2.12-1.34,4-3.46,4.21l-9.43.93c-.69.07-1.36-.05-1.95-.32-1.22-.55-2.12-1.72-2.26-3.14l-.04-.4-1.33-13.51-.04-.45c0-.15-.02-.29-.02-.44.01-1.12.51-2.14,1.31-2.83.21-.18.43-.35.68-.48.44-.25.94-.41,1.48-.46l6.34-.63,3.09-.3c.3-.03.59-.02.87.02,1.75.21,3.17,1.61,3.34,3.43ZM265.22,317.71l.89,9.04.52,5.33c.02.25.02.5,0,.74-.01.1-.02.2-.04.3-.03.16-.06.32-.11.47-.02.08-.05.15-.08.23-.01.03-.02.06-.04.1-.03.09-.07.17-.12.26-.08.17-.18.34-.3.5-.03.05-.07.1-.11.15-.08.1-.16.19-.24.28-.1.1-.21.2-.32.3h-.01c-.07.06-.14.12-.22.17-.4.29-.86.51-1.36.63-.07,0-.14.03-.21.04-.09.02-.19.03-.29.04l-1.96.19-.52.05-6.95.69c-2.12.21-4.01-1.34-4.22-3.46l-1.41-14.36c-.21-2.12,1.34-4.01,3.46-4.21l9.42-.93c2.12-.21,4.01,1.34,4.22,3.45ZM239.13,228.08l-1.41-14.37c-.21-2.12,1.33-4,3.45-4.21l9.43-.93c2.12-.21,4.01,1.34,4.21,3.46l1.42,14.36c.21,2.12-1.34,4-3.46,4.21l-9.43.93c-2.11.21-4-1.34-4.21-3.45ZM242.5,262.35l-1.41-14.36c-.21-2.12,1.34-4.01,3.46-4.21l9.42-.93c2.12-.21,4.01,1.33,4.22,3.45l1.41,14.37c.21,2.12-1.34,4-3.45,4.21l-9.43.93c-2.12.21-4.01-1.34-4.22-3.46ZM246.04,298.26l-1.41-14.36c-.21-2.12,1.33-4.01,3.45-4.22l9.43-.93c2.12-.2,4,1.34,4.21,3.46l1.42,14.37c.21,2.11-1.34,4-3.46,4.21l-9.43.93c-2.12.21-4-1.34-4.21-3.46ZM270.23,407.97l-9.42.93c-2.12.21-4.01-1.34-4.22-3.45l-1.41-14.37c-.21-2.12,1.34-4,3.45-4.21l9.43-.93c2.12-.21,4.01,1.34,4.22,3.46l1.41,14.36c.21,2.12-1.34,4.01-3.46,4.21Z"/>
    <g>
      <path class="cls-1" d="M533.23,381.51c3.21-3.69,5.61-7.86,7.22-12.52,1.6-4.66,2.15-9.53,1.66-14.61-.49-5-1.98-9.63-4.45-13.89-2.47-4.26-5.64-7.89-9.5-10.89-3.87-3-8.24-5.25-13.13-6.75-4.88-1.51-9.97-2-15.28-1.48s-10.19,1.99-14.65,4.4c-4.46,2.42-8.3,5.47-11.51,9.16-3.21,3.69-5.62,7.87-7.22,12.53s-2.16,9.49-1.67,14.48c.5,5.08,1.98,9.75,4.45,14.01,2.48,4.26,5.65,7.89,9.51,10.89,3.87,3,8.22,5.25,13.07,6.76,4.84,1.51,9.91,2,15.22,1.48,5.31-.52,10.21-1.98,14.71-4.4s8.35-5.48,11.57-9.17h0Z"/>
      <path class="cls-1" d="M489.3,402.05c-6.04-1.82-11.43-4.59-16.18-8.32s-8.67-8.24-11.75-13.53-4.92-11.08-5.54-17.39c-.62-6.3.08-12.35,2.07-18.14,2-5.78,4.97-10.94,8.91-15.48s8.7-8.28,14.28-11.24c2.88-1.52,5.89-2.74,9.05-3.64l-50.05,4.81-21.59,44.17,4.6,47.12,71.93-7.03h0c-1.94-.32-3.85-.76-5.73-1.33Z"/>
      <path class="cls-1" d="M582.6,382.3c-2-3.18-3.22-6.89-3.62-11.03l-6.34-64.89-63.74,6.12c3.24.28,6.41.89,9.51,1.81,6.07,1.81,11.48,4.56,16.23,8.25s8.64,8.18,11.68,13.48c3.04,5.29,4.87,11.09,5.49,17.4.61,6.3-.06,12.34-2.02,18.13-1.96,5.78-4.91,10.96-8.84,15.53-3.94,4.58-8.72,8.35-14.33,11.3-1.73.92-3.52,1.72-5.35,2.42l75.34-7.36c-2.32-.86-4.49-1.94-6.45-3.28-3.04-2.07-5.58-4.72-7.56-7.88h0Z"/>
      <path class="cls-1" d="M390.69,323.86l19.87,26.06c2.36-4.7,4.59-9.19,6.77-13.65,2.62-5.35,5.15-10.58,7.61-15.7l-34.25,3.29h0Z"/>
      <path class="cls-1" d="M633.38,300.54l6.33,64.8c.41,4.11,0,7.96-1.22,11.45-1.21,3.46-3.05,6.54-5.47,9.17-1.58,1.7-3.43,3.19-5.49,4.48l44.48-4.35-8.64-88.43-30,2.88h0Z"/>
      <path class="cls-1" d="M701.81,352.61l-2-2.5-1.02-10.45,1.99-.19c2.59-.25,4.77-.51,6.47-.78,1.46-.23,3.07-.7,4.79-1.38,1.25-.51,2.37-1.3,3.39-2.41,1.05-1.14,1.95-2.5,2.66-4.04.72-1.58,1.25-3.36,1.55-5.27.32-1.95.39-3.94.19-5.93-.37-3.77-1.42-6.88-3.1-9.23-1.68-2.36-3.85-4.11-6.45-5.22-1.52-.62-3.26-1.01-5.15-1.17-2-.16-4.11-.14-6.26.08l-21.02,2.06,7.68,78.6,39.04-3.81c-3.93-4.87-7.86-9.74-11.77-14.63-3.65-4.54-7.31-9.12-10.98-13.72h0Z"/>
      <path class="cls-1" d="M620.17,301.81l-34.32,3.3,6.32,64.65c.2,2.02.81,3.83,1.85,5.51,1.06,1.71,2.44,3.16,4.1,4.3,1.71,1.19,3.71,2.09,5.96,2.68,2.24.59,4.68.76,7.27.5,2.53-.25,4.81-.84,6.78-1.77,1.96-.92,3.62-2.11,4.93-3.53,1.31-1.4,2.26-3.05,2.85-4.91.6-1.9.79-3.97.58-6.14l-6.31-64.59h-.01Z"/>
      <path class="cls-2" d="M831.98,370.47h.03s-5.44.52-5.44.52l-11.61,1.14-74.29,7.25-.82-1.02c-4.3-5.36-8.6-10.68-12.91-15.99-3.67-4.51-7.38-9.06-11.13-13.63,1.75-.62,3.46-1.46,5.13-2.53,2.65-1.7,4.99-3.96,6.94-6.7,1.92-2.7,3.43-5.91,4.47-9.52,1.05-3.61,1.38-7.61.96-11.9-.59-5.97-2.58-11.11-5.92-15.29-3.34-4.17-7.5-7.19-12.37-8.97-.9-.34-1.84-.61-2.79-.86l17.37-1.67-1.12-11.45-338.6,32.51-9.84-100.76-.37-3.77-.79-8.07-.02-.2-3.1-31.75-9.79.95-4.05.4-95.93,9.37,12.51,128.08.06.65,1.04,10.58.55,5.6,10.95,112.16,10.82-1.06,1.05-.1.18-.02,7.42-.73-13.4-135.81-1.46-14.75-2.25-22.84,23.09-2.28,14.87-1.46,23.81-2.35-.49-4.97-1.15-11.69-3.61.35-5.26.52-10.66,1.04-.44.04-41.81,4.09-5.05-51.19,76.68-7.56,2.46,25.19.02.25.81,8.21.38,3.9,9.88,101.15-2.95.29,31.19,40.3,4.64,47.58-24.06,2.35,1.18,12.11,421.29-41.15,11.94-1.17,12.94-1.26-1.18-12.11ZM480.45,384.87c-3.66-2.84-6.66-6.28-9.01-10.31-2.34-4.04-3.74-8.46-4.22-13.27-.46-4.73.07-9.3,1.59-13.71,1.51-4.42,3.79-8.38,6.83-11.87,3.04-3.5,6.68-6.38,10.9-8.68,4.23-2.28,8.85-3.67,13.88-4.16,5.03-.5,9.85-.03,14.47,1.4,4.63,1.42,8.77,3.55,12.43,6.39,3.66,2.84,6.66,6.28,9,10.31,2.34,4.04,3.75,8.42,4.22,13.16.46,4.81-.06,9.42-1.58,13.84-1.52,4.41-3.79,8.36-6.83,11.85-3.05,3.5-6.7,6.4-10.96,8.69-4.26,2.29-8.9,3.67-13.93,4.16-5.03.5-9.83.03-14.42-1.4-4.59-1.43-8.71-3.56-12.37-6.4ZM417.32,336.28c-2.18,4.47-4.41,8.95-6.76,13.64-.01,0-.01.01-.01.01l-19.87-26.06h.02l34.23-3.29c-.61,1.28-1.23,2.57-1.86,3.86-1.24,2.59-2.51,5.2-3.79,7.84-.65,1.32-1.3,2.65-1.95,3.99h-.01ZM423.11,410.41l-4.6-47.12,21.59-44.17,50.04-4.81c-3.16.9-6.16,2.12-9.04,3.64-.15.08-.3.16-.45.24-.49.26-.98.54-1.46.82-.18.11-.35.21-.52.32-.37.2-.74.43-1.1.68-.26.15-.51.31-.76.48-.35.22-.69.45-1.03.7-.39.26-.78.54-1.16.83-.36.25-.72.52-1.08.81-.18.13-.36.27-.53.43-.34.25-.68.53-1.02.83-.21.17-.42.35-.63.54-.28.23-.56.48-.83.75-.2.18-.4.36-.6.55-.14.13-.27.26-.4.4-.27.24-.54.51-.8.79-.13.13-.26.26-.39.4-.18.19-.36.38-.53.57-.16.17-.32.34-.47.52-.18.19-.35.38-.52.58-3.94,4.54-6.91,9.7-8.91,15.48-1.99,5.79-2.69,11.84-2.07,18.14.12,1.18.27,2.34.47,3.49.07.38.14.76.22,1.14.16.76.33,1.51.52,2.25.13.51.27,1.01.42,1.51.13.41.26.82.39,1.23.75,2.25,1.7,4.42,2.82,6.52.23.42.46.84.7,1.25.29.5.58.99.89,1.47.24.38.48.76.73,1.13.15.24.31.47.48.7.2.29.4.57.61.85.13.2.28.39.43.58.36.49.74.98,1.14,1.46.25.33.53.66.81.98.14.16.27.32.42.47.35.42.73.83,1.12,1.23.06.07.12.14.19.2.34.37.7.73,1.08,1.09.14.15.29.29.44.43.54.51,1.1,1.02,1.67,1.51.44.38.88.76,1.34,1.11.13.11.26.21.4.32,4.75,3.73,10.14,6.5,16.18,8.32,1.88.57,3.78,1.01,5.72,1.33l-71.92,7.03ZM521.27,400.82c1.84-.7,3.63-1.5,5.35-2.42,5.61-2.95,10.39-6.72,14.33-11.3,3.93-4.57,6.88-9.75,8.84-15.53,1.96-5.79,2.63-11.83,2.02-18.13-.62-6.31-2.45-12.11-5.49-17.4-3.04-5.3-6.93-9.79-11.68-13.48s-10.16-6.44-16.23-8.25c-3.1-.92-6.27-1.53-9.51-1.81l63.74-6.12,6.34,64.89c.4,4.14,1.62,7.86,3.62,11.03.28.44.57.88.88,1.3.22.33.46.66.71.97.28.37.57.72.87,1.07.3.34.61.68.93,1.01.63.65,1.29,1.28,1.99,1.87.69.58,1.42,1.14,2.18,1.66,1.96,1.34,4.13,2.42,6.45,3.28l-75.34,7.36ZM625.66,373.24c-.13.38-.29.74-.47,1.1-.29.6-.63,1.18-1.01,1.72-.14.21-.3.42-.46.62-.21.27-.44.53-.67.78-1.32,1.42-2.98,2.61-4.93,3.53-.49.23-1,.44-1.53.63-.33.12-.66.23-1,.32-.14.05-.28.09-.43.12-.35.1-.71.19-1.07.27-.35.08-.71.14-1.07.2-.21.04-.43.08-.65.1-.09.02-.18.03-.27.03-.25.05-.5.07-.76.1-.38.04-.77.06-1.15.08-.39.02-.78.03-1.17.03s-.75-.01-1.12-.04c-.09,0-.17,0-.26-.01-.38-.02-.76-.06-1.13-.11h-.05c-.4-.05-.8-.11-1.19-.19-.41-.07-.81-.16-1.2-.26-.84-.22-1.65-.49-2.41-.8-.26-.1-.51-.21-.76-.32-1-.44-1.93-.96-2.79-1.56-.83-.57-1.59-1.22-2.27-1.94h0c-.7-.72-1.3-1.51-1.83-2.36-1.04-1.69-1.65-3.49-1.85-5.51l-6.32-64.65h0l34.31-3.3,6.31,64.59c.21,2.18.02,4.25-.58,6.14h.01c-.07.23-.15.46-.24.69ZM672.01,386.09l-44.46,4.35c.16-.11.32-.21.48-.32.02-.01.04-.03.06-.04.24-.16.48-.32.72-.5.08-.04.15-.09.22-.15.17-.11.32-.23.48-.35.7-.51,1.36-1.05,1.99-1.63.31-.27.62-.56.91-.86.21-.2.42-.41.62-.63,2.42-2.63,4.26-5.71,5.47-9.17,1.22-3.49,1.63-7.34,1.22-11.45l-6.33-64.8,29.98-2.88h.02l8.64,88.43h-.02ZM685.52,384.77h-.01s.01-.01.01-.01l-7.68-78.59,21.02-2.06c.29-.03.58-.05.87-.07.29-.02.57-.04.86-.05.06-.01.11-.02.17-.01.08,0,.17-.01.25-.01,1.4-.07,2.78-.04,4.11.06.48.04.94.09,1.4.17.45.06.89.14,1.32.25.2.04.4.09.59.15.23.05.45.12.67.19.2.05.4.12.6.2.19.06.38.13.57.21h.01c.65.28,1.27.59,1.86.95h.01c.59.36,1.15.75,1.69,1.19,1.08.87,2.04,1.9,2.88,3.08.84,1.18,1.53,2.54,2.04,4.08.26.77.48,1.58.66,2.44.17.86.31,1.76.4,2.71.13,1.37.14,2.74.04,4.1-.06.61-.13,1.23-.23,1.83-.31,1.91-.83,3.68-1.55,5.27-.71,1.54-1.61,2.9-2.66,4.04-1.02,1.1-2.14,1.9-3.39,2.41-1.71.68-3.33,1.15-4.79,1.38-1.7.26-3.88.52-6.47.78l-1.99.19,1.02,10.45h.01s1.99,2.5,1.99,2.5c3.67,4.6,7.33,9.17,10.98,13.72,3.91,4.89,7.84,9.76,11.77,14.63l-39.02,3.81h-.01Z"/>
    </g>
  </g>
  <rect class="cls-2" x="367" y="181.89" width="8.47" height="141.88" transform="translate(-22.93 37.49) rotate(-5.61)"/>
</svg>